#!OML:ASF F:\VICON\USERDATA\INSTALL\rory3\rory3.ASF
:FULLY-SPECIFIED
:DEGREES
810
root -1.57895 17.8434 -4.98917 4.12413 23.13 -0.315655
lowerback 2.3644 -3.05912 -2.97936
upperback 0.997667 -4.13305 2.05197
thorax 0.0647319 -2.08623 3.85853
lowerneck -18.0181 -3.49397 -11.5592
upperneck 34.8581 -0.541427 -0.891929
head 15.4305 -1.85527 1.53325
rclavicle 1.61016e-014 -5.96354e-015
rhumerus 31.163 -13.7549 -61.7069
rradius 79.6783
rwrist -64.6854
rhand -3.83628 5.44582
rfingers 7.12502
rthumb 21.9112 -23.3334
lclavicle 1.61016e-014 -5.96354e-015
lhumerus 39.3514 0.133468 74.8323
lradius 65.5522
lwrist 75.3944
lhand 2.8283 28.9408
lfingers 7.12502
lthumb 28.2965 56.8233
rfemur -22.4274 2.50203 20.059
rtibia 33.4976
rfoot -14.0849 -3.94159
rtoes 17.1173
lfemur -4.3197 -1.25973 -16.6838
ltibia 22.5862
lfoot -15.4563 9.29453
ltoes -19.7963
811
root -1.59248 17.8464 -4.95971 4.18263 23.1062 -0.205049
lowerback 2.16767 -3.0167 -3.00093
upperback 1.13257 -4.07241 1.98088
thorax 0.304279 -2.0624 3.77979
lowerneck -18.3768 -3.5083 -11.4778
upperneck 35.4168 -0.590496 -0.668117
head 15.7853 -1.85828 1.60432
rclavicle -5.46658e-015 -6.55989e-015
rhumerus 30.2944 -13.2779 -60.9805
rradius 82.3847
rwrist -64.5282
rhand -2.21556 6.52989
rfingers 7.12502
rthumb 23.4666 -22.059
lclavicle -5.46658e-015 -6.55989e-015
lhumerus 38.6441 -0.294239 74.6621
lradius 68.0524
lwrist 74.0896
lhand 4.50076 27.3672
lfingers 7.12502
lthumb 29.8937 54.9737
rfemur -22.3369 2.41006 20.0483
rtibia 33.4454
rfoot -14.0444 -3.90916
rtoes 16.7887
lfemur -4.26417 -1.25706 -16.7142
ltibia 22.6367
lfoot -15.4791 9.24333
ltoes -19.7226
812
root -1.60511 17.8484 -4.932 4.1255 23.0732 -0.291036
lowerback 1.9545 -3.0063 -2.90595
upperback 1.36882 -4.05192 2.07001
thorax 0.664498 -2.0624 3.79713
lowerneck -18.6248 -3.55906 -11.6964
upperneck 35.5515 -0.622658 -0.452369
head 15.9166 -1.87737 1.7269
rclavicle -4.28878e-014 4.37326e-015
rhumerus 29.611 -12.815 -60.3395
rradius 85.1751
rwrist -64.4923
rhand -0.503929 7.2157
rfingers 7.12502
rthumb 25.1076 -21.1535
lclavicle -4.28878e-014 4.37326e-015
lhumerus 37.9152 -0.548629 74.5006
lradius 70.642
lwrist 72.8269
lhand 5.90687 25.662
lfingers 7.12502
lthumb 31.2346 53.0185
rfemur -22.218 2.3815 20.2303
rtibia 33.4134
rfoot -14.0473 -3.84783
rtoes 16.9191
lfemur -4.18784 -1.28846 -16.5539
ltibia 22.6991
lfoot -15.5258 9.24976
ltoes -19.6618
813
root -1.62234 17.8522 -4.90725 4.08494 23.087 -0.356548
lowerback 2.05997 -3.01324 -2.82021
upperback 1.40014 -4.06184 2.11666
thorax 0.635948 -2.0668 3.80252
lowerneck -18.5773 -3.57499 -11.862
upperneck 35.5425 -0.664109 -0.269333
head 15.9058 -1.89011 1.82687
rclavicle -3.10601e-014 1.59028e-015
rhumerus 28.5976 -12.2805 -59.8836
rradius 87.9766
rwrist -64.2866
rhand 1.28636 7.68498
rfingers 7.12502
rthumb 26.8219 -20.4329
lclavicle -3.10601e-014 1.59028e-015
lhumerus 36.8214 -0.969797 74.0765
lradius 73.3841
lwrist 71.5962
lhand 6.80927 24.1463
lfingers 7.12502
lthumb 32.0941 51.3333
rfemur -22.132 2.37932 20.4002
rtibia 33.3928
rfoot -14.0434 -3.82925
rtoes 17.0278
lfemur -4.15361 -1.31688 -16.3956
ltibia 22.7651
lfoot -15.5282 9.27362
ltoes -20.0616
814
root -1.64266 17.8533 -4.88379 4.1303 23.1678 -0.295507
lowerback 2.34052 -2.99612 -2.83215
upperback 1.22734 -4.0447 2.03559
thorax 0.29473 -2.04883 3.74864
lowerneck -18.2771 -3.55611 -11.6817
upperneck 35.6441 -0.778331 -0.183276
head 15.8861 -1.90287 1.81536
rclavicle 3.23025e-015 -1.68967e-014
rhumerus 27.1171 -11.7588 -59.4776
rradius 90.6757
rwrist -63.8175
rhand 3.07314 8.33861
rfingers 7.12502
rthumb 28.5304 -19.5049
lclavicle 3.23025e-015 -1.68967e-014
lhumerus 35.4335 -1.60853 73.7143
lradius 76.1301
lwrist 70.2158
lhand 7.58384 23.0771
lfingers 7.12502
lthumb 32.8312 50.1127
rfemur -22.1019 2.35032 20.4509
rtibia 33.3852
rfoot -14.086 -3.93849
rtoes 16.667
lfemur -4.21818 -1.25245 -16.338
ltibia 22.8627
lfoot -15.4197 9.26461
ltoes -21.2127
815
root -1.66096 17.8531 -4.85931 4.13592 23.2653 -0.28838
lowerback 2.2598 -2.97158 -2.83634
upperback 1.34762 -4.01021 2.01277
thorax 0.459167 -2.03626 3.71807
lowerneck -18.1041 -3.61532 -11.5484
upperneck 35.5021 -0.957202 -0.164965
head 15.783 -1.94935 1.76806
rclavicle -2.80783e-014 -3.37934e-015
rhumerus 26.0177 -11.4579 -59.1224
rradius 93.2441
rwrist -63.2143
rhand 4.58213 9.07985
rfingers 7.12502
rthumb 29.9713 -18.5126
lclavicle -2.80783e-014 -3.37934e-015
lhumerus 34.4732 -2.14742 73.5618
lradius 78.7066
lwrist 68.7803
lhand 7.76658 22.2096
lfingers 7.12502
lthumb 33.0051 49.2088
rfemur -22.0454 2.36919 20.5465
rtibia 33.3954
rfoot -14.1749 -4.01826
rtoes 16.9765
lfemur -4.27309 -1.19527 -16.2282
ltibia 22.9824
lfoot -15.1967 9.15375
ltoes -22.0097
816
root -1.67885 17.8506 -4.83269 4.14999 23.3289 -0.292011
lowerback 2.18748 -2.99071 -2.81853
upperback 1.55312 -4.03366 2.06124
thorax 0.715309 -2.05585 3.74662
lowerneck -18.3992 -3.68607 -11.6986
upperneck 35.4171 -1.0088 -0.0570804
head 15.8181 -1.97399 1.82736
rclavicle -3.926e-015 -4.96962e-015
rhumerus 25.1766 -11.0654 -58.7616
rradius 95.7325
rwrist -62.6405
rhand 5.83038 9.90285
rfingers 7.12502
rthumb 31.1617 -17.4677
lclavicle -3.926e-015 -4.96962e-015
lhumerus 33.5314 -2.47573 73.4213
lradius 81.475
lwrist 67.3573
lhand 7.17849 21.5064
lfingers 7.12502
lthumb 32.4456 48.622
rfemur -22.008 2.41153 20.6494
rtibia 33.4231
rfoot -14.3349 -4.00005
rtoes 17.4204
lfemur -4.32638 -1.19831 -16.1133
ltibia 23.1103
lfoot -15.0495 9.05717
ltoes -22.2902
817
root -1.69746 17.8489 -4.80699 4.14426 23.3549 -0.347055
lowerback 2.17158 -3.04039 -2.75429
upperback 1.7997 -4.09855 2.14562
thorax 0.985329 -2.09672 3.78822
lowerneck -19.0223 -3.71435 -11.9289
upperneck 35.4021 -0.942907 0.133176
head 15.9582 -1.95366 1.95615
rclavicle -5.46161e-014 7.15625e-015
rhumerus 24.4936 -10.5919 -58.4829
rradius 98.16
rwrist -61.8941
rhand 6.83118 10.5289
rfingers 7.12502
rthumb 32.115 -16.6539
lclavicle -5.46161e-014 7.15625e-015
lhumerus 32.5785 -2.61409 73.2723
lradius 84.3955
lwrist 66.0586
lhand 6.13279 21.2424
lfingers 7.12502
lthumb 31.4498 48.5571
rfemur -21.9874 2.4806 20.8088
rtibia 33.4482
rfoot -14.4418 -4.061
rtoes 17.2703
lfemur -4.37937 -1.29643 -15.9574
ltibia 23.2667
lfoot -15.0909 9.0827
ltoes -22.0025
818
root -1.71593 17.8479 -4.78328 4.11181 23.3554 -0.357635
lowerback 2.34959 -3.02153 -2.74127
upperback 1.75218 -4.0762 2.13705
thorax 0.833341 -2.08184 3.78447
lowerneck -18.7818 -3.70764 -11.8668
upperneck 35.3285 -1.00117 0.141899
head 15.8667 -1.96376 1.93985
rclavicle 1.05853e-014 -1.23246e-014
rhumerus 23.0397 -10.0661 -58.1411
rradius 100.565
rwrist -61.0679
rhand 7.70472 11.0019
rfingers 7.12502
rthumb 32.9462 -16.0097
lclavicle 1.05853e-014 -1.23246e-014
lhumerus 31.0178 -3.23318 72.913
lradius 87.2304
lwrist 65.0402
lhand 4.70976 20.5643
lfingers 7.12502
lthumb 30.0931 48.1347
rfemur -21.9408 2.56978 20.9169
rtibia 33.4931
rfoot -14.5286 -4.13634
rtoes 17.3863
lfemur -4.37419 -1.40229 -15.8605
ltibia 23.4285
lfoot -15.1793 9.15005
ltoes -21.7581
819
root -1.73316 17.8458 -4.75881 4.10555 23.3752 -0.246187
lowerback 3.60981 -3.08324 -2.45802
upperback 0.947464 -4.174 1.8321
thorax -0.7334 -2.08801 3.42211
lowerneck -18.2215 -3.51155 -11.457
upperneck 35.8222 -0.912996 0.112199
head 15.9592 -1.89377 1.88212
rclavicle -8.0309e-014 1.66979e-014
rhumerus 20.5873 -8.88695 -58.1509
rradius 102.812
rwrist -60.1249
rhand 8.30455 11.7239
rfingers 7.12502
rthumb 33.5165 -15.1659
lclavicle -8.0309e-014 1.66979e-014
lhumerus 28.2408 -4.25361 72.0249
lradius 90.0136
lwrist 64.3277
lhand 2.95391 19.6928
lfingers 7.12502
lthumb 28.4165 47.5554
rfemur -21.8539 2.57318 20.8997
rtibia 33.5487
rfoot -14.6537 -4.11197
rtoes 17.7172
lfemur -4.37345 -1.39272 -15.8795
ltibia 23.6566
lfoot -15.2823 9.1027
ltoes -21.7762
820
root -1.74961 17.844 -4.73457 4.16324 23.4774 -0.105225
lowerback 3.52801 -3.09083 -2.59128
upperback 1.06356 -4.18741 1.81132
thorax -0.559261 -2.0995 3.46576
lowerneck -18.1055 -3.55038 -11.494
upperneck 35.6362 -1.00135 0.157689
head 15.8459 -1.92081 1.89121
rclavicle -7.89175e-014 1.09332e-014
rhumerus 19.4494 -8.46558 -57.9315
rradius 104.876
rwrist -59.2797
rhand 8.6673 11.993
rfingers 7.12502
rthumb 33.8613 -14.8214
lclavicle -7.89175e-014 1.09332e-014
lhumerus 26.9232 -4.91118 71.7045
lradius 92.6003
lwrist 63.7041
lhand 1.35816 19.2681
lfingers 7.12502
lthumb 26.8906 47.3754
rfemur -21.8114 2.50926 20.8568
rtibia 33.6212
rfoot -14.7906 -4.13425
rtoes 17.5722
lfemur -4.48681 -1.43807 -15.916
ltibia 23.9624
lfoot -15.3862 9.02803
ltoes -22.0161
